<svg width="22" height="21" viewBox="0 0 22 21" fill="none" xmlns="http://www.w3.org/2000/svg">
<path fill-rule="evenodd" clip-rule="evenodd" d="M10.8842 0.249963C10.0662 0.249694 9.50805 0.24951 9.02939 0.377767C7.73529 0.724518 6.72449 1.73532 6.37774 3.02942C6.2856 3.37328 6.25975 3.75817 6.25259 4.25093C5.44137 4.2565 4.83687 4.29062 4.30702 4.48979C3.45642 4.80953 2.75085 5.42726 2.3215 6.22815C1.99831 6.83099 1.89962 7.57373 1.75587 8.65555L0.932067 14.8344C0.831208 15.5908 0.75021 16.1982 0.719978 16.693C0.689032 17.1994 0.705884 17.6511 0.836636 18.0841C1.14915 19.1189 1.89301 19.9685 2.87745 20.4151C3.28933 20.6019 3.73491 20.6783 4.24096 20.7146C4.73532 20.75 5.34812 20.75 6.11119 20.75H15.8887C16.6517 20.75 17.2646 20.75 17.759 20.7146C18.265 20.6783 18.7106 20.6019 19.1225 20.4151C20.1069 19.9685 20.8508 19.1189 21.1633 18.0841C21.294 17.6511 21.3109 17.1994 21.2799 16.693C21.2497 16.1983 21.1687 15.5908 21.0679 14.8345L20.2441 8.65556C20.1003 7.57374 20.0016 6.83099 19.6784 6.22815C19.2491 5.42726 18.5435 4.80953 17.6929 4.48979C17.163 4.29062 16.5585 4.2565 15.7473 4.25093C15.7402 3.75817 15.7143 3.37328 15.6222 3.02942C15.2754 1.73532 14.2646 0.724518 12.9705 0.377767C12.4919 0.24951 11.9337 0.249694 11.1158 0.249963H10.8842ZM14.25 5.74998V7.99999C14.25 8.4142 14.5857 8.74999 15 8.74999C15.4142 8.74999 15.75 8.4142 15.75 7.99999V5.75231C16.541 5.75964 16.8846 5.78844 17.1651 5.89387C17.6755 6.08571 18.0988 6.45635 18.3564 6.93688C18.5337 7.26753 18.605 7.71226 18.7772 9.00437L19.5772 15.0044C19.6827 15.7956 19.7562 16.3497 19.7827 16.7845C19.809 17.2137 19.7841 17.4625 19.7273 17.6505C19.5398 18.2713 19.0935 18.7811 18.5028 19.049C18.3241 19.1301 18.0807 19.1877 17.6518 19.2184C17.2173 19.2495 16.6583 19.25 15.8601 19.25H6.13978C5.34158 19.25 4.78258 19.2495 4.34815 19.2184C3.91924 19.1877 3.67585 19.1301 3.49707 19.049C2.90641 18.7811 2.46009 18.2713 2.27259 17.6505C2.21583 17.4625 2.19096 17.2137 2.21719 16.7845C2.24375 16.3497 2.31719 15.7956 2.42268 15.0044L3.22268 9.00437C3.39496 7.71226 3.46624 7.26753 3.6435 6.93688C3.90112 6.45635 4.32445 6.08571 4.83482 5.89387C5.11527 5.78844 5.45893 5.75964 6.24996 5.75231V7.99999C6.24996 8.4142 6.58574 8.74999 6.99996 8.74999C7.41417 8.74999 7.74996 8.4142 7.74996 7.99999V5.74998H14.25ZM14.2463 4.24998C14.2396 3.81501 14.2215 3.59751 14.1733 3.41765C13.9652 2.64119 13.3588 2.03471 12.5823 1.82666C12.3202 1.75643 11.9782 1.74999 11 1.74999C10.0217 1.74999 9.6797 1.75643 9.41761 1.82666C8.64116 2.03471 8.03468 2.64119 7.82662 3.41765C7.77843 3.59751 7.76028 3.81501 7.75363 4.24998H14.2463Z" fill="#1B1314"/>
</svg>
