<svg width="142" height="17" viewBox="0 0 142 17" fill="none" xmlns="http://www.w3.org/2000/svg">
<path d="M134.473 3.14006H134.568C134.789 4.17409 134.885 4.64529 135.108 5.39572L136.408 10.4742H132.602L133.902 5.39572C134.092 4.64529 134.22 4.17409 134.473 3.14006ZM137.928 16.4613H141.513L137.011 0.630259H132.126L127.591 16.4624H130.984L131.998 12.9197H136.914L137.928 16.4613ZM119.82 16.6795C121.787 16.6795 123.69 16.2105 124.928 15.7087V7.78009H119.408V10.3183H121.661V13.8588C121.248 14.1097 120.548 14.2678 119.79 14.2678C117.444 14.2678 116.713 13.1084 116.713 9.75543V7.71465C116.713 4.39333 117.41 2.76267 119.567 2.76267C121.057 2.76267 121.568 3.76615 121.601 4.8329H124.994C124.957 2.04277 122.929 0.319397 119.566 0.319397C114.87 0.319397 113.16 3.01354 113.16 7.37325V9.69326C113.127 14.4249 114.747 16.6806 119.819 16.6806M103.934 3.14006H104.031C104.251 4.17409 104.348 4.64529 104.568 5.39572L105.871 10.4742H102.064L103.364 5.39572C103.554 4.64529 103.68 4.17409 103.934 3.14006ZM107.391 16.4624H110.972L106.472 0.630259H101.585L97.0545 16.4624H100.448L101.462 12.9197H106.375L107.391 16.4613V16.4624ZM90.2643 16.4624H93.6577V0.630259H90.2643V16.4624ZM80.9412 16.6806C84.7136 16.6806 86.5536 14.955 86.6483 11.7308H83.2251C83.1612 13.2971 82.6522 14.2678 81.037 14.2678C79.1993 14.2678 78.503 12.984 78.503 9.69326V7.37325C78.503 4.04975 79.1993 2.79757 81.037 2.79757C82.7514 2.79757 83.0356 3.92649 83.0973 5.11759H86.5216C86.4885 2.35909 84.9042 0.384842 80.9423 0.384842C76.533 0.384842 74.9178 3.1117 74.9178 7.37325V9.69326C74.9178 13.9864 76.5319 16.6806 80.9412 16.6806ZM57.9804 16.4624H60.9949V7.27835C60.9949 5.99345 60.9288 4.42605 60.8649 3.14006H60.964C61.4378 4.76964 61.6912 5.61606 62.1352 6.83769L65.6564 16.4624H70.6033V0.630259H67.59V9.4413C67.59 10.5975 67.6231 12.1354 67.6539 13.6079H67.5592C67.3058 12.5096 67.081 11.4123 66.4155 9.62673L63.118 0.63135H57.9507V16.4624H57.9804ZM44.1533 16.4624H53.3817V13.921H47.5467V9.53292H52.8407V6.96531H47.5456V3.14006H53.1591V0.600809H44.15V16.4602L44.1533 16.4624ZM31.7552 16.4624H40.6354V13.921H35.1486V0.63135H31.7552V16.4624ZM21.2267 3.13897H21.3226C21.5429 4.173 21.6421 4.6442 21.8625 5.39463L23.1625 10.4731H19.3581L20.6582 5.39463C20.8477 4.6442 20.9755 4.173 21.2278 3.13897M24.6841 16.4624H28.2681L23.7641 0.630259H18.8811L14.3451 16.4624H17.7386L18.7522 12.9197H23.6693L24.6852 16.4613L24.6841 16.4624ZM3.91143 14.0475V9.44239H5.97393C7.71802 9.44239 8.54104 10.2255 8.54104 11.7591C8.54104 13.4498 7.46351 14.0802 5.91003 14.0802H3.91143V14.0475ZM3.91143 7.02639V3.04626H6.03783C7.58912 3.04626 8.25568 3.73343 8.25568 5.02051C8.25568 6.30759 7.49877 7.02748 6.06978 7.02748L3.91143 7.02639ZM0.518001 16.4624H6.51159C9.87197 16.4624 11.9323 15.2681 11.9323 11.9795C11.9323 9.87869 10.6983 8.4389 8.41323 8.21639V8.12477C10.4405 7.78009 11.648 6.6828 11.648 4.58312C11.648 1.85408 10.0615 0.632441 6.67024 0.632441H0.487152V16.4624H0.518001Z" fill="#BDBDBD"/>
</svg>
