<svg width="20" height="20" viewBox="0 0 20 20" fill="none" xmlns="http://www.w3.org/2000/svg">
<path fill-rule="evenodd" clip-rule="evenodd" d="M2.70834 5C2.70834 4.65482 2.98817 4.375 3.33334 4.375L16.6667 4.375C17.0119 4.375 17.2917 4.65482 17.2917 5C17.2917 5.34518 17.0119 5.625 16.6667 5.625L3.33334 5.625C2.98817 5.625 2.70834 5.34518 2.70834 5Z" fill="#1B1314"/>
<path fill-rule="evenodd" clip-rule="evenodd" d="M2.70834 10C2.70834 9.65482 2.98817 9.375 3.33334 9.375L10 9.375C10.3452 9.375 10.625 9.65482 10.625 10C10.625 10.3452 10.3452 10.625 10 10.625L3.33334 10.625C2.98817 10.625 2.70834 10.3452 2.70834 10Z" fill="#1B1314"/>
<path fill-rule="evenodd" clip-rule="evenodd" d="M2.70834 15C2.70834 14.6548 2.98817 14.375 3.33334 14.375L16.6667 14.375C17.0119 14.375 17.2917 14.6548 17.2917 15C17.2917 15.3452 17.0119 15.625 16.6667 15.625L3.33334 15.625C2.98817 15.625 2.70834 15.3452 2.70834 15Z" fill="#1B1314"/>
</svg>
