<svg width="142" height="31" viewBox="0 0 142 31" fill="none" xmlns="http://www.w3.org/2000/svg">
<path d="M41.7198 25.9331H30.1863V17.6942H39.6393V13.2164H30.1863V5.1117H41.6293V0.320557H26.4774L24.5778 2.15645V19.5748L24.2612 30.6796H41.7198V25.9331ZM75.5514 2.15645L73.6519 0.320557H69.5812L69.9431 11.3805V19.5748L69.5812 30.6796H87.0851V25.933H75.5515L75.5514 2.15645ZM101.83 0.320557V23.6047C101.694 25.0824 100.609 25.9779 98.8899 25.9779C97.0808 25.9779 95.9048 24.948 95.9048 23.2913V0.320557H89.9346L90.2963 11.3805V23.0226C90.2963 27.8138 93.5077 30.6796 98.8899 30.6796C104.272 30.6796 107.438 27.8138 107.438 23.0226V2.15653L105.584 0.320557H101.83ZM137.109 0.320557L135.254 2.15645V30.6795H140.818V11.3806L141.179 0.320557H137.109ZM112.73 5.1117H118.52V28.8437L120.374 30.6796H124.445L124.083 19.6196V6.45505C124.083 6.09879 124.226 5.75711 124.48 5.50519C124.735 5.25326 125.08 5.11172 125.44 5.1117H129.872V0.320557H112.73V5.1117ZM59.9926 18.3658C63.2039 16.7986 64.9678 13.709 64.9678 9.679C64.9678 3.63408 61.6208 0.320557 55.5601 0.320557H49.0922L47.1926 2.15645V19.5748L46.8308 30.6796H52.7559V18.9479H53.6153L60.264 30.6796H65.6462V28.8436L59.8569 18.4105L59.9926 18.3658ZM54.5198 14.3358H52.7559V5.1117H54.5198C57.6858 5.1117 59.2688 6.63419 59.2688 9.72379C59.2688 12.8134 57.6858 14.3358 54.5198 14.3358ZM14.356 15.1417L13.8132 14.9179L14.2656 14.6941C16.527 13.4403 17.6126 11.4701 17.6126 8.55957C17.6124 3.2311 14.4463 0.320557 8.65697 0.320557H0.15387L0.515677 11.3805V28.7989L2.37012 30.6348H9.9235C15.7128 30.6348 18.8789 27.6347 18.8789 22.2166C18.8789 17.6493 16.3009 15.9926 14.356 15.1417ZM5.26482 5.11178H8.43087C10.0591 5.11178 12.004 6.18643 12.004 9.14176C12.004 12.0971 10.1044 13.2164 8.43087 13.2164H5.26482V5.11178ZM9.56161 25.9332H5.21959V19.1719C5.21959 18.8156 5.36254 18.4739 5.61699 18.222C5.87145 17.9701 6.21656 17.8286 6.57643 17.8285H9.56161C11.1899 17.8285 13.1347 18.9032 13.1347 21.8585C13.1347 24.8138 11.2351 25.9332 9.56161 25.9332Z" fill="#BDBDBD"/>
</svg>
