<svg width="142" height="19" viewBox="0 0 142 19" fill="none" xmlns="http://www.w3.org/2000/svg">
<path d="M105.216 18.3389L100.843 10.7432C102.78 9.82493 104.014 7.88869 104.016 5.76246C104.016 2.70611 101.503 0.219402 98.4158 0.219402H89.0625V18.3382H93.222V11.3055H96.5325L100.581 18.3389H105.216ZM93.1537 7.80782V3.72582H97.6365L97.6192 3.7328C98.9838 3.80531 99.8532 4.58831 99.8532 5.77083C99.8532 6.94045 98.9218 7.76005 97.5333 7.80886H93.1537V7.80782ZM72.0759 18.3389V0.219402H85.7507V3.67667H76.3478V7.30162H84.5921V10.8359H76.3478V14.7011H86.2158V18.3389H72.0759ZM52.5722 18.3389L48.199 10.7432C50.1358 9.82493 51.3693 7.88835 51.3711 5.76246C51.3711 2.70611 48.8592 0.219402 45.772 0.219402H36.4181V18.3382H40.5779V11.3055H43.8895L47.9377 18.3389H52.5722ZM40.5086 7.80782V3.72582H44.992L44.9744 3.7328C46.339 3.80531 47.2091 4.58831 47.2091 5.77083C47.2091 6.94045 46.2773 7.76005 44.8885 7.80886H40.5086V7.80782ZM25.3334 18.7855C30.3377 18.7855 33.3263 15.9369 33.3263 11.1664V0.232649H29.0548V10.8837C29.0548 13.4631 27.6984 14.9427 25.3337 14.9427H25.3313C22.9666 14.9427 21.6109 13.4635 21.6109 10.8837V0.232649H17.3377V11.1671C17.3377 15.9373 20.3263 18.7859 25.3313 18.7859L25.3334 18.7855ZM11.7509 8.30355C14.2159 9.13571 15.4174 11.2117 15.4174 13.2135C15.4174 16.0339 13.1042 18.3299 10.2578 18.3389H0.153847V0.218007H9.45989C11.8823 0.240319 13.8353 2.18945 13.8381 4.58796C13.8412 6.10097 13.051 7.5073 11.7509 8.30286V8.30355ZM4.34715 14.958H9.01725C10.4853 14.958 11.2533 13.8742 11.2533 12.8025C11.2533 11.9393 10.56 10.724 9.01725 10.724H4.34715V14.958ZM7.7668 7.34415C8.84224 7.34415 9.68597 6.52176 9.68597 5.47171C9.68597 4.45653 8.80561 3.59927 7.76609 3.59927H4.34715V7.34415H7.7668ZM66.1159 8.30007C68.5809 9.13153 69.7824 11.2083 69.7824 13.21C69.7824 16.0307 67.4692 18.3257 64.6229 18.3354L54.5192 18.3347V0.214521L63.8239 0.214172C66.2469 0.236833 68.1999 2.18632 68.2027 4.58517C68.2056 6.09818 67.4157 7.50417 66.1156 8.29937L66.1159 8.30007ZM58.7122 14.9545H63.3819C64.85 14.9545 65.618 13.8707 65.618 12.799C65.618 11.9362 64.9239 10.7205 63.3819 10.7205H58.7122V14.9545ZM62.1308 7.34066C63.2076 7.34066 64.0513 6.51827 64.0513 5.46823C64.0513 4.45304 63.171 3.59579 62.1308 3.59579H58.7122V7.34066H62.1308ZM123.317 18.3389L118.944 10.7432C120.881 9.82493 122.114 7.88835 122.116 5.76246C122.116 2.70611 119.604 0.219402 116.517 0.219402H107.164V18.3382H111.324V11.3055H114.635L118.683 18.3389H123.317ZM111.254 7.80782V3.72582H115.737L115.72 3.7328C117.084 3.80531 117.955 4.58831 117.955 5.77083C117.955 6.94045 117.023 7.76005 115.634 7.80886H111.254V7.80782ZM129.395 18.3389V10.9555L122.135 0.219402H127.469L131.648 6.44889L135.846 0.219402H141.179L133.901 10.9555V18.3389H129.395Z" fill="#BDBDBD"/>
</svg>
