<svg width="80" height="81" viewBox="0 0 80 81" fill="none" xmlns="http://www.w3.org/2000/svg">
<path d="M71.7122 5.08121L71.5663 5.12935C70.9986 3.90857 70.1874 2.93673 69.1326 2.21381C68.0944 1.49131 66.7886 1.13006 65.2151 1.13006C64.339 1.13006 63.5034 1.3148 62.7083 1.68428C61.9133 2.0373 61.2157 2.54317 60.6156 3.20191C60.0312 3.84418 59.5608 4.62326 59.2042 5.53916C58.8472 6.45421 58.6687 7.46596 58.6687 8.57441C58.6687 9.68244 58.8472 10.6942 59.2042 11.6097C59.5612 12.5251 60.0316 13.3122 60.6156 13.971C61.2157 14.6132 61.9131 15.1111 62.7077 15.4645C63.5032 15.818 64.339 15.9947 65.2151 15.9947C66.7723 15.9947 68.0376 15.7538 69.011 15.272C70.0005 14.7737 70.8361 14.0187 71.5177 13.0069L71.6636 13.0551L71.615 14.5968C71.2418 14.9823 70.8118 15.3277 70.3251 15.633C69.8389 15.9223 69.3117 16.1714 68.7436 16.3804C68.1921 16.5726 67.6162 16.717 67.0161 16.8137C66.4156 16.926 65.8152 16.9822 65.2151 16.9822C63.9658 16.9822 62.7734 16.7816 61.638 16.3804C60.5021 15.9784 59.5042 15.4162 58.6443 14.6937C57.7845 13.9547 57.1031 13.0713 56.6002 12.0435C56.0973 10.9997 55.8459 9.84332 55.8459 8.57441C55.8459 7.3055 56.0975 6.15693 56.6008 5.12871C57.1033 4.08487 57.7845 3.19367 58.6443 2.45513C59.5042 1.71616 60.5021 1.15392 61.638 0.768386C62.7734 0.367233 63.9655 0.166656 65.2144 0.166656C65.815 0.166656 66.4156 0.214584 67.0161 0.310438C67.6162 0.407137 68.1921 0.559787 68.7436 0.768386C69.3113 0.961362 69.8385 1.2105 70.3251 1.5158C70.8118 1.80463 71.2418 2.14181 71.615 2.52734L71.7122 5.08121ZM18.0869 9.68286C17.9086 9.76309 17.7384 9.86739 17.5764 9.99576C17.4143 10.1241 17.3332 10.3008 17.3332 10.5259V13.4896C16.554 14.5976 15.5559 15.4569 14.339 16.0675C13.1225 16.6777 11.7762 16.9828 10.2999 16.9828C9.05062 16.9828 7.85803 16.782 6.72218 16.3804C5.58675 15.9789 4.58909 15.4166 3.7292 14.6937C2.86931 13.9547 2.18793 13.0715 1.68505 12.0442C1.18217 10.9999 0.930725 9.84332 0.930725 8.57441C0.930725 7.30592 1.18238 6.15756 1.68569 5.12935C2.18814 4.0855 2.86931 3.1941 3.7292 2.45513C4.58909 1.71616 5.58675 1.15413 6.72218 0.76902C7.85803 0.367444 9.05062 0.166656 10.2999 0.166656C10.9001 0.166656 11.5002 0.214795 12.1003 0.311072C12.7009 0.407348 13.2767 0.559998 13.8278 0.76902C14.3959 0.961573 14.9233 1.2105 15.41 1.5158C15.8967 1.80505 16.3266 2.14223 16.6998 2.52734L16.7977 5.08121L16.6512 5.12935C16.0839 3.90899 15.2729 2.93736 14.2181 2.21444C13.1794 1.49152 11.8734 1.13006 10.2999 1.13006C9.42383 1.13006 8.58825 1.3148 7.7932 1.68428C6.99857 2.03772 6.30119 2.5436 5.70106 3.20191C5.11671 3.8446 4.64603 4.62368 4.28903 5.53916C3.93202 6.45463 3.75351 7.46638 3.75351 8.57441C3.75351 9.66639 3.92413 10.6701 4.26535 11.5856C4.62193 12.5015 5.09218 13.2886 5.67611 13.9469C6.27666 14.5892 6.97426 15.095 7.76889 15.4645C8.56394 15.818 9.40762 15.9947 10.2999 15.9947C11.9873 15.9947 13.4311 15.6736 14.6314 15.0313V10.5259C14.6314 10.3013 14.5422 10.1245 14.3639 9.99576C14.2018 9.86739 14.0398 9.76288 13.8777 9.68222L13.8994 9.56188C13.9805 9.57666 14.1266 9.5927 14.3377 9.61002C14.5488 9.6248 14.7679 9.64084 14.9948 9.65815H17.0875C17.2825 9.64338 17.4691 9.62733 17.6474 9.61002C17.8257 9.59524 17.9634 9.57919 18.0607 9.56188L18.0869 9.68286ZM35.7133 0.67211C35.5513 0.75234 35.3892 0.856851 35.2271 0.985643C35.0646 1.11401 34.9752 1.35491 34.959 1.70835C34.9441 2.09388 34.9279 2.58371 34.9104 3.17784C34.9104 3.75635 34.9031 4.41508 34.8886 5.15405C34.8886 5.89259 34.8812 6.69553 34.8663 7.56287V10.2612C34.8513 11.305 34.7214 12.1964 34.4766 12.9354C34.2335 13.6743 33.9091 14.2925 33.5035 14.79C33.1141 15.2882 32.676 15.6818 32.1893 15.9706C31.7189 16.2599 31.2484 16.4767 30.7779 16.6211C30.3237 16.7816 29.8937 16.8781 29.4881 16.9106C29.0825 16.9587 28.766 16.9828 28.5387 16.9828C27.6139 16.9828 26.7216 16.8624 25.8617 16.6218C25.0018 16.3967 24.2475 16.0272 23.5988 15.5133C22.95 14.999 22.4309 14.3324 22.0415 13.5137C21.6521 12.6945 21.4574 11.6985 21.4574 10.5259V5.29783C21.4574 4.52719 21.4499 3.83679 21.435 3.22661C21.435 2.59997 21.4275 2.09388 21.4126 1.70835C21.3981 1.35491 21.3089 1.11422 21.1451 0.986276C20.9831 0.857485 20.821 0.752763 20.6589 0.67211L20.6807 0.551764C20.7617 0.566543 20.8918 0.582589 21.0709 0.599902C21.2654 0.614681 21.4599 0.630728 21.6544 0.64804C21.8656 0.64804 22.0682 0.65543 22.2622 0.670209H23.1388C23.3337 0.65543 23.5365 0.64804 23.7472 0.64804C23.9583 0.633261 24.153 0.617215 24.3313 0.599902C24.5258 0.585123 24.6636 0.569077 24.7446 0.551764L24.767 0.67211C24.5888 0.75234 24.4184 0.856851 24.2558 0.985643C24.11 1.11401 24.0289 1.35491 24.0127 1.70835C23.9978 2.09388 23.9816 2.59976 23.9641 3.22598V10.5259C23.9641 12.2766 24.3778 13.5696 25.2053 14.4049C26.0328 15.2401 27.2576 15.6577 28.8797 15.6577C29.3501 15.6577 29.8854 15.6013 30.4856 15.4886C31.0861 15.3602 31.6459 15.1033 32.165 14.7178C32.7003 14.3322 33.1465 13.7862 33.5035 13.0798C33.8767 12.3729 34.0633 11.4334 34.0633 10.2612C34.0633 8.99224 34.0558 7.90807 34.0409 7.00864C34.0409 6.09317 34.0334 5.31409 34.0185 4.6714C34.0185 4.01266 34.0111 3.45062 33.9961 2.98529C33.9816 2.51953 33.9654 2.09388 33.9475 1.70835C33.933 1.35491 33.8439 1.11401 33.6801 0.985643C33.518 0.857274 33.3559 0.752763 33.1938 0.67211L33.2156 0.551764C33.3943 0.583856 33.5971 0.616159 33.824 0.648674C34.0514 0.663031 34.2625 0.670209 34.4574 0.670209C34.6353 0.670209 34.8379 0.663031 35.0652 0.648674C35.3084 0.616582 35.5193 0.584278 35.698 0.551764L35.7133 0.67211ZM53.3718 5.08121L53.2259 5.12935C52.6578 3.90857 51.8465 2.93673 50.7921 2.21381C49.7539 1.49131 48.4479 1.13006 46.874 1.13006C45.9983 1.13006 45.1629 1.3148 44.3679 1.68428C43.5728 2.0373 42.8752 2.54317 42.2751 3.20191C41.6908 3.84418 41.2203 4.62326 40.8637 5.53916C40.5067 6.45421 40.3282 7.46596 40.3282 8.57441C40.3282 9.68244 40.5067 10.6942 40.8637 11.6097C41.2203 12.5251 41.6908 13.3122 42.2751 13.971C42.8752 14.6132 43.5726 15.1111 44.3673 15.4645C45.1627 15.818 45.9983 15.9947 46.874 15.9947C48.4317 15.9947 49.6972 15.7538 50.6705 15.272C51.6601 14.7737 52.4957 14.0187 53.1773 13.0069L53.3231 13.0551L53.2745 14.5968C52.9013 14.9823 52.4714 15.3277 51.9847 15.633C51.4984 15.9223 50.9712 16.1714 50.4031 16.3804C49.8516 16.5726 49.2758 16.717 48.6757 16.8137C48.0751 16.926 47.4748 16.9822 46.8746 16.9822C45.6249 16.9822 44.4323 16.7816 43.2969 16.3804C42.1614 15.9784 41.1638 15.4162 40.3039 14.6937C39.444 13.9547 38.7626 13.0713 38.2597 12.0435C37.7564 10.9997 37.5048 9.84332 37.5048 8.57441C37.5048 7.3055 37.7564 6.15693 38.2597 5.12871C38.7631 4.08487 39.4444 3.19367 40.3039 2.45513C41.1638 1.71616 42.1614 1.15392 43.2969 0.768386C44.4327 0.367233 45.6253 0.166656 46.8746 0.166656C47.4748 0.166656 48.0749 0.214584 48.675 0.310438C49.2756 0.407137 49.8514 0.559787 50.4025 0.768386C50.9706 0.961362 51.498 1.2105 51.9847 1.5158C52.4714 1.80463 52.9013 2.14181 53.2745 2.52734L53.3718 5.08121ZM79.0469 16.5723C78.9658 16.558 78.8281 16.5422 78.6336 16.5248C78.4553 16.5248 78.2606 16.5175 78.0494 16.5027C77.8383 16.5027 77.6355 16.4955 77.441 16.4811H75.9816C75.7867 16.4955 75.5917 16.5113 75.3968 16.5286C75.2185 16.5434 75.0808 16.5595 74.9835 16.5768L74.9611 16.4805C75.1232 16.4003 75.2853 16.2958 75.4474 16.167C75.6099 16.0386 75.6992 15.7977 75.7154 15.4443C75.7304 15.0587 75.7378 14.6572 75.7378 14.2395C75.7528 13.8219 75.7602 13.3481 75.7602 12.8182V4.31416C75.7602 3.78379 75.7528 3.31782 75.7378 2.91625C75.7378 2.49862 75.7304 2.09726 75.7154 1.71215C75.7005 1.35872 75.6114 1.11781 75.448 0.989443C75.2859 0.844606 75.1238 0.732072 74.9618 0.651841L74.9835 0.555564C75.0808 0.587656 75.2185 0.611726 75.3968 0.627772C75.5917 0.627772 75.7865 0.635161 75.981 0.649941C76.1921 0.66472 76.3949 0.67211 76.5894 0.67211H77.441C77.6355 0.65733 77.8381 0.649941 78.0488 0.649941C78.2603 0.635161 78.4553 0.619115 78.6336 0.601802C78.8281 0.587023 78.9658 0.570977 79.0469 0.553664L79.0693 0.650574C78.891 0.730805 78.7206 0.843128 78.5581 0.987543C78.4122 1.11591 78.3311 1.3566 78.3149 1.70962C78.3 2.09557 78.2838 2.49736 78.2663 2.91498V14.2383C78.2812 14.6555 78.2974 15.0568 78.3149 15.4424C78.3294 15.7958 78.4105 16.0367 78.5581 16.1651C78.7201 16.2934 78.8905 16.398 79.0693 16.4786L79.0469 16.5723Z" fill="#BDBDBD"/>
<path fill-rule="evenodd" clip-rule="evenodd" d="M75.6572 57.3101C75.6572 70.2974 65.0148 80.8333 51.8964 80.8333C48.1171 80.8333 44.5553 79.9738 41.341 78.3821C38.1695 79.9308 34.5643 80.8333 30.8291 80.8333C17.7101 80.8333 7.06766 70.2974 7.06766 57.3101C7.06766 44.3229 17.7101 33.7869 30.8285 33.7869C34.6078 33.7869 38.1695 34.6471 41.3404 36.1951C44.5118 34.6471 48.1171 33.7869 51.8964 33.7869C65.0148 33.7869 75.6572 44.3229 75.6572 57.3101ZM70.9662 57.3101C70.9662 46.9034 62.4083 38.4316 51.8964 38.4316C49.8983 38.4316 47.9437 38.7325 46.1625 39.2918C49.8113 42.3017 52.4613 46.3441 53.764 50.9888H48.8554C47.4767 47.1114 44.8525 43.7882 41.3845 41.5277C37.9526 43.7636 35.3461 47.0757 33.9564 50.9888H29.0479C30.3334 46.4085 32.9822 42.3176 36.6494 39.2487C34.7779 38.6776 32.8304 38.3877 30.872 38.3886C20.3601 38.3886 11.8028 46.8603 11.8028 57.2671C11.8028 67.6738 20.3601 76.1462 30.872 76.1462C32.8701 76.1462 34.7812 75.8453 36.5623 75.286C31.8278 71.3729 28.744 65.6102 28.2661 59.1597H39.5598V63.7607L34.0428 63.8468C35.4766 67.6314 38.0396 70.8142 41.3845 73.0071C44.7287 70.8136 47.2918 67.6314 48.7255 63.8468L43.2086 63.7607V59.1597H54.5029C53.9815 65.6102 50.8542 71.3298 46.119 75.243C47.9437 75.8022 49.8983 76.1462 51.8964 76.1462C62.4518 76.1893 70.9662 67.76 70.9662 57.3101Z" fill="#BDBDBD"/>
</svg>
