<svg width="80" height="81" viewBox="0 0 80 81" fill="none" xmlns="http://www.w3.org/2000/svg">
<mask id="mask0_140_1264" style="mask-type:luminance" maskUnits="userSpaceOnUse" x="0" y="0" width="80" height="81">
<path d="M0.33725 0.166656H79.9675V80.9117H0.33725V0.166656Z" fill="white"/>
</mask>
<g mask="url(#mask0_140_1264)">
<path d="M30.6544 67.3303V63.7682C30.6544 58.0348 30.6557 52.3009 30.6582 46.5666C30.6636 44.6804 30.6928 42.7944 30.7458 40.909C30.7727 38.4888 31.4604 36.1209 32.7361 34.0561C33.9641 32.0992 35.6991 30.7289 37.7888 29.7724C39.7261 28.9136 41.7917 28.373 43.9046 28.1718C45.9124 27.9459 47.9416 27.9839 49.9394 28.2845C51.7298 28.5571 53.5264 28.8722 55.1482 29.6973C59.1007 31.7074 61.6496 34.8082 62.4227 39.215C62.646 40.6823 62.7509 42.1648 62.7364 43.6486C62.747 44.4715 62.7504 45.2952 62.7292 46.118C62.7164 46.6127 62.5644 46.7276 62.07 46.7319C60.5623 46.7448 59.0537 46.7613 57.5472 46.7732C57.0284 46.7775 56.775 46.5611 56.7451 46.043C56.7079 45.3937 56.6968 44.7427 56.6869 44.0919C56.6672 42.651 56.6869 41.2085 56.6358 39.768C56.5323 36.838 55.4809 34.3072 53.2771 32.301C51.7811 31.0066 49.9346 30.1748 47.966 29.9085C45.9975 29.6421 43.9932 29.9529 42.2012 30.8025C39.6391 32.1111 37.8402 34.0808 37.1276 36.8827C36.9285 37.8132 36.8267 38.7615 36.8238 39.7126C36.7678 41.135 36.7777 42.5602 36.7796 43.9842C36.7849 47.9663 36.8182 51.9481 36.8023 55.9302C36.805 57.2842 36.7372 58.6375 36.5991 59.9846C36.264 63.0687 34.6982 65.3678 31.914 66.8224C31.5032 67.0129 31.0828 67.1825 30.6544 67.3303Z" fill="#BDBDBD"/>
<path d="M30.9635 70.5911C33.5486 70.0909 33.5486 70.0909 36.6962 68.7177C36.7377 69.2306 36.7685 69.738 36.8214 70.2435C37.1976 73.9062 39.0614 76.5596 42.3769 78.2077C43.2145 78.6241 44.1367 78.7571 45.0626 78.8417C46.3043 78.9728 47.5574 78.9562 48.7951 78.7925C51.3081 78.4284 53.1922 77.1095 54.6004 75.0617C55.7761 73.3925 56.4472 71.4262 56.5352 69.3931C56.6076 67.6891 56.6394 65.9834 56.6845 64.2782C56.6964 63.8243 56.6768 63.3704 56.6978 62.9165C56.7219 62.3728 56.9961 62.1131 57.5491 62.0804C57.8085 62.0651 58.0689 62.0642 58.3288 62.0644C59.508 62.0655 60.687 62.0682 61.8661 62.0725C62.4934 62.0744 62.7507 62.2722 62.7463 62.8864C62.7357 64.4029 62.7222 65.9203 62.6368 67.4347C62.5726 68.8323 62.3118 70.2142 61.8619 71.5405C60.4523 75.5598 57.6896 78.2741 53.6709 79.7344C51.3182 80.5897 48.869 80.8735 46.3727 80.8288C43.7182 80.8106 41.089 80.3162 38.6126 79.3696C35.9922 78.3795 33.7757 76.5598 32.308 74.1936C31.6439 73.083 31.1883 71.8625 30.9635 70.5911ZM37.6015 29.1307V19.5056C37.616 18.8902 37.8481 18.6482 38.4762 18.6456C40.0798 18.6379 41.6834 18.6379 43.2871 18.6456C43.8925 18.6484 44.1076 18.8677 44.1478 19.4666C44.1551 19.5777 44.1565 19.6895 44.1565 19.8011V27.4934C41.8977 27.6918 39.6851 28.2445 37.6015 29.1307Z" fill="#BDBDBD"/>
<path d="M40.8731 54.4751C40.516 54.4718 40.172 54.6081 39.9159 54.8544C39.6597 55.1007 39.512 55.4372 39.5049 55.7906C39.5065 55.9645 39.543 56.1364 39.6122 56.2963C39.6813 56.4561 39.7818 56.6008 39.9079 56.722C40.0339 56.8431 40.183 56.9383 40.3464 57.0021C40.5099 57.0658 40.6844 57.0968 40.8601 57.0933C41.2189 57.1005 41.566 56.9666 41.8254 56.7211C42.0848 56.4755 42.2354 56.1382 42.2442 55.783C42.2446 55.6096 42.2094 55.438 42.1406 55.2785C42.0718 55.1191 41.9709 54.9752 41.8441 54.8556C41.5825 54.609 41.2344 54.4725 40.8731 54.4751Z" fill="#BDBDBD"/>
<path d="M44.1563 31.0571V30.7466C42.9046 31.0834 41.7401 31.6816 40.7411 32.5007C39.4053 33.6383 38.3476 34.9773 37.8419 36.6782C37.5062 37.8074 37.4661 38.9782 37.4589 40.1436C37.4449 42.4089 37.4695 44.6746 37.4688 46.9402C37.4678 50.2704 37.4621 53.6005 37.4517 56.9306C37.4606 58.1656 37.3712 59.3994 37.1843 60.6205C36.9956 61.9331 36.5151 63.1878 35.7774 64.2942C35.0397 65.4007 34.0632 66.3313 32.9183 67.019C30.8486 68.3152 28.599 68.4939 26.275 67.8324C23.5241 67.0493 21.551 65.3897 20.5541 62.69C20.015 61.1316 19.6784 59.5116 19.5525 57.869C19.4176 56.4961 19.3336 55.1179 19.226 53.7422C19.1828 53.1906 18.9632 52.967 18.4056 52.9586C16.8115 52.9347 15.2175 52.9216 13.6234 52.906C13.5455 52.9051 13.4677 52.9123 13.3913 52.9273C12.9072 53.0229 12.6242 53.3779 12.6432 54.0083C12.6763 55.0694 12.7072 56.1358 12.8363 57.1884C13.2868 60.8604 15.008 63.8886 17.8199 66.2767C21.9703 69.8033 26.816 70.7679 32.0877 69.7139C35.9486 68.9425 39.0175 66.8233 41.4732 63.8178C42.8274 62.1609 43.7415 60.2844 43.92 58.1365C44.0578 56.4722 44.1396 54.7985 44.1452 53.1285C44.17 45.7701 44.1563 38.4137 44.1563 31.0571ZM39.6837 35.4849C39.7933 35.4203 39.9151 35.3786 40.0416 35.3624L40.0732 35.3571L40.1178 35.6462L40.0836 35.6488C39.9376 35.6422 39.7947 35.692 39.6852 35.7878C39.5757 35.8835 39.5081 36.0177 39.4967 36.162C39.4994 36.339 39.6415 36.6751 40.1465 36.6751H42.2384V36.5294H42.3752V37.1051H42.2331V36.9747H40.4018C40.1528 36.9981 39.9023 36.9492 39.6808 36.8342C39.5716 36.7579 39.4825 36.6567 39.4211 36.5391C39.3597 36.4216 39.3278 36.2911 39.3281 36.1588C39.3283 36.0264 39.3607 35.8961 39.4226 35.7788C39.4845 35.6614 39.574 35.5606 39.6835 35.4847L39.6837 35.4849ZM42.3755 40.1218V40.5124H42.236V40.3848H39.5093V40.5124H39.3698V39.9412H39.483L39.504 39.9544L39.5066 39.9699L39.5093 40.0872H41.8171L40.2066 39.4515L41.7379 38.816H39.5093V38.9489H39.3698V38.4852H39.5093V38.6335H42.236V38.4852H42.3755V38.8342L40.8022 39.5017L42.3755 40.1218ZM42.3755 42.5236V42.9168H42.236V42.7864H39.5093V42.9168H39.3698V42.3435H39.5093V42.4895H41.8171L40.2066 41.8564L41.7379 41.2181H39.5093V41.3509H39.3698V40.8872H39.5093V41.0356H42.236V40.8872H42.3755V41.2362L40.8022 41.9035L42.3755 42.5236ZM40.9887 44.2716L42.236 44.7613V44.6259H42.3755V45.0797H42.236V44.9493L40.7467 44.3607H39.51V44.5692H39.3705V43.871H39.51V44.0559H40.752L42.236 43.337V43.204H42.3755V43.785H42.236V43.6545L40.9887 44.2716ZM42.236 38.0769V37.9465H39.5093V38.0769H39.3698V37.5141H39.5093V37.6522H42.236V37.5141H42.3755V38.0779L42.236 38.0769ZM40.8729 57.385C40.5496 57.4 40.2291 57.3188 39.9529 57.1518C39.6766 56.9848 39.4572 56.7398 39.323 56.4482C39.1887 56.1567 39.1457 55.832 39.1996 55.516C39.2534 55.2 39.4016 54.9073 39.6251 54.6755C39.8485 54.4437 40.137 54.2835 40.4533 54.2155C40.7696 54.1475 41.0992 54.1748 41.3997 54.294C41.7001 54.4132 41.9576 54.6187 42.139 54.8841C42.3203 55.1495 42.4172 55.4626 42.4172 55.783C42.4263 56.1979 42.2689 56.5994 41.9795 56.8996C41.6902 57.1999 41.2924 57.3743 40.8734 57.3848L40.8729 57.385ZM40.8729 53.9674C40.5496 53.9824 40.2291 53.9012 39.9529 53.7342C39.6767 53.5673 39.4573 53.3222 39.323 53.0307C39.1887 52.7392 39.1457 52.4145 39.1995 52.0985C39.2534 51.7826 39.4016 51.4898 39.625 51.258C39.8484 51.0262 40.1369 50.8659 40.4532 50.7979C40.7694 50.7299 41.099 50.7572 41.3995 50.8764C41.6999 50.9955 41.9575 51.201 42.1388 51.4663C42.3202 51.7317 42.4172 52.0448 42.4172 52.3652C42.4263 52.7801 42.269 53.1817 41.9796 53.482C41.6902 53.7823 41.2924 53.9567 40.8734 53.9672L40.8729 53.9674ZM41.4124 50.1641V49.2938H39.51V49.4242H39.3705V48.8518H39.51V48.9952H42.2367V48.8518H42.3762V49.4252H42.2367V49.2947H41.5789V50.165H42.2367V50.019H42.3762L42.3735 50.5974H42.2367V50.4646H39.51V50.6H39.3705V50.0193H39.51V50.1653L41.4124 50.1641ZM42.4177 48.3007V48.4335H41.7809V48.2981H42.0439C42.1778 48.1093 42.2486 47.8837 42.2466 47.6531C42.2318 47.3046 42.0794 46.9758 41.8222 46.7375C41.5649 46.4992 41.2234 46.3705 40.8712 46.3791C40.6943 46.3742 40.5182 46.4044 40.3532 46.4679C40.1883 46.5313 40.0378 46.6268 39.9106 46.7486C39.7834 46.8704 39.682 47.0161 39.6125 47.1772C39.543 47.3383 39.5066 47.5116 39.5056 47.6868C39.5029 47.9915 39.6102 48.2872 39.8082 48.5205L39.8268 48.5465L39.7243 48.6402L39.7033 48.6163C39.4652 48.365 39.3325 48.0335 39.3321 47.6889C39.3244 47.4835 39.3585 47.2785 39.4326 47.0865C39.5066 46.8944 39.619 46.719 39.7631 46.571C39.9072 46.4229 40.0799 46.3051 40.2711 46.2246C40.4622 46.1442 40.6677 46.1027 40.8754 46.1027C41.0831 46.1027 41.2886 46.1442 41.4797 46.2246C41.6709 46.3051 41.8436 46.4229 41.9877 46.571C42.1318 46.719 42.2442 46.8944 42.3182 47.0865C42.3923 47.2785 42.4264 47.4835 42.4187 47.6889C42.4186 47.8988 42.3777 48.1067 42.298 48.3012L42.4177 48.3007Z" fill="#BDBDBD"/>
<path d="M40.8731 51.0565C40.6962 51.0505 40.5198 51.0796 40.3545 51.1422C40.1891 51.2048 40.0382 51.2996 39.9105 51.4211C39.7829 51.5425 39.6811 51.6881 39.6114 51.8491C39.5416 52.0102 39.5052 52.1835 39.5043 52.3588C39.5034 52.534 39.538 52.7077 39.6062 52.8695C39.6743 53.0312 39.7746 53.1778 39.901 53.3005C40.0274 53.4232 40.1774 53.5195 40.3421 53.5838C40.5068 53.648 40.6829 53.6789 40.8598 53.6746C41.2187 53.6817 41.5658 53.5479 41.8252 53.3023C42.0846 53.0568 42.2352 52.7195 42.244 52.3642C42.2444 52.1909 42.2091 52.0192 42.1403 51.8598C42.0715 51.7004 41.9707 51.5565 41.8439 51.4369C41.5823 51.1903 41.2343 51.054 40.8731 51.0565Z" fill="#BDBDBD"/>
<path d="M47.9494 9.23279C47.1227 9.92059 46.0751 10.2934 44.9953 10.2839C42.3921 10.2839 40.3623 8.20007 40.3623 5.54074C40.3623 2.92704 42.347 0.8248 44.8766 0.761016C45.6953 0.753251 46.4958 0.999345 47.1661 1.46479V2.37831H47.646V0.166656H47.1646V0.587104C46.4777 0.313613 45.7448 0.170966 45.0045 0.166656C41.875 0.166656 39.3271 2.57037 39.3271 5.53142C39.3271 8.48339 41.875 10.8871 45.0045 10.8871C46.2253 10.8857 47.4001 10.4251 48.2908 9.59853L48.3738 9.52543L48.0415 9.16901L47.9494 9.23279ZM34.148 0.797328H34.6279L32.8925 5.12937L30.7048 0.797328H31.1664V0.312858H29.0985V0.797328H29.5784L32.1263 5.95068V10.2655H31.471V10.75H33.9451V10.2655H33.2064V5.97003L35.2927 0.797328H35.7543V0.312858H34.148V0.797328ZM10.4693 0.797328H10.931V0.312858H8.94624V0.797328H9.4356V10.2655H8.94624V10.75H10.9401V10.2655H10.4693V0.797328ZM24.5012 5.7782L22.1378 0.312858H20.9009V0.797328H21.4178V10.2655H20.9009V10.75H22.5442V10.2655H22.0734V2.52546L24.326 7.84436L26.5783 2.25026V10.2655H26.0614V10.75H28.0917V10.2655H27.6301V0.797328H28.0917V0.312858H26.6977L24.5012 5.7782ZM15.9896 5.7782L13.6266 0.312858H12.3896V0.797328H12.9065V10.2655H12.3802V10.75H14.0235V10.2655H13.5626V2.52546L15.8152 7.84436L18.0668 2.25026V10.2655L17.6513 10.2746L17.5958 10.2837L17.5497 10.3568V10.7497H19.5621V10.2655H19.1097V0.797328H19.5711V0.312858H18.1771L15.9896 5.7782ZM54.8359 0.797328H55.3067V0.312858H53.2573V0.797328H53.764V3.08208H50.6898V0.797328H51.1515V0.312858H49.1124V0.797328H49.6293V10.2655H49.1124V10.75H51.1435V10.2655H50.691V3.65733H53.7653V10.265H53.2585V10.7495H55.3079V10.2655H54.8371L54.8359 0.797328ZM5.44733 0.788011H5.96445V8.05291C5.96445 9.80756 4.77361 10.3011 4.14574 10.3102C3.5642 10.3011 2.42862 9.85319 2.32704 8.27221L2.31787 8.15277L1.30246 8.30972L1.32104 8.41937C1.37876 8.85843 1.52657 9.28117 1.75539 9.6616C2.02437 10.0418 2.38181 10.3524 2.79753 10.5672C3.21325 10.7819 3.67506 10.8945 4.14396 10.8954C4.61287 10.8962 5.0751 10.7854 5.49166 10.5723C5.90821 10.3591 6.26685 10.0499 6.5373 9.67068C6.99892 8.95783 7.03583 8.11789 7.03583 7.16663V0.806406H7.49672V0.312858H5.44733V0.788011ZM61.575 0.166656C58.4456 0.166656 55.8977 2.57037 55.8977 5.53142C55.8977 8.48339 58.4456 10.8962 61.575 10.8962C64.7045 10.8962 67.2524 8.49247 67.2524 5.53142C67.2524 2.57037 64.7052 0.166656 61.575 0.166656ZM61.5473 10.2837C58.9625 10.2837 56.9408 8.19983 56.9408 5.53118C56.9317 4.27666 57.4149 3.06763 58.2887 2.159C58.7125 1.7187 59.2225 1.36846 59.7875 1.12963C60.3525 0.890805 60.9607 0.768391 61.575 0.769855C64.1329 0.769855 66.2185 2.9268 66.2185 5.57705C66.2286 6.19099 66.1153 6.80079 65.8852 7.37099C65.6551 7.94118 65.3127 8.46037 64.878 8.89835C64.4433 9.33634 63.925 9.68437 63.3532 9.9222C62.7814 10.16 62.1675 10.2829 61.5473 10.2837ZM73.6868 0.166656C70.5573 0.166656 68.0094 2.57037 68.0094 5.53142C68.0094 8.48339 70.5573 10.8962 73.6868 10.8962C76.8163 10.8962 79.3642 8.49247 79.3642 5.53142C79.3642 2.57037 76.817 0.166656 73.6868 0.166656ZM73.7054 10.2837C71.1297 10.2746 69.0434 8.13605 69.0434 5.5405C69.0341 4.28593 69.5173 3.07682 70.3911 2.16808C70.8137 1.72555 71.3232 1.37323 71.8884 1.13278C72.4536 0.892331 73.0625 0.768827 73.6776 0.769855C76.2354 0.769855 78.321 2.9268 78.321 5.57705C78.321 8.20007 76.2994 10.2655 73.7042 10.2837H73.7054Z" fill="#BDBDBD"/>
</g>
</svg>
