<svg width="69" height="81" viewBox="0 0 69 81" fill="none" xmlns="http://www.w3.org/2000/svg">
<path d="M50.3999 0.166926C56.1831 0.166926 61.9672 0.166091 67.7504 0.167761C67.7538 1.45714 67.7437 2.74736 67.7563 4.03757C66.2869 4.10104 64.7846 4.26388 63.4315 4.87266C62.0591 5.48311 60.9086 6.59378 60.3164 7.96918C53.2839 24.3353 46.2565 40.7031 39.2316 57.0725C39.1102 57.3414 39.0123 57.6195 38.8706 57.8792C36.3552 57.85 33.839 57.875 31.3236 57.8658C30.2135 55.6821 29.1211 53.4891 28.0018 51.3104C26.7188 54.7142 25.4282 58.1147 24.1452 61.5177C32.4429 61.5185 40.7407 61.5177 49.0385 61.5185C50.5577 61.5386 52.1224 61.4759 53.5437 60.888C55.9056 59.9486 57.7858 58.1331 59.316 56.1648C61.1633 53.7797 62.5652 51.0949 63.8145 48.3667C65.2156 48.355 66.6159 48.3709 68.0161 48.3684C65.3607 53.9835 62.6918 59.5936 60.0127 65.1979C40.8917 65.1988 21.7715 65.1979 2.65045 65.1979C3.11608 63.9946 3.55893 62.7812 4.0583 61.5904C4.08866 61.4676 4.24303 61.4985 4.33666 61.4868C6.72384 61.4693 9.12704 61.3774 11.4695 60.8855C12.6884 60.6024 13.9495 60.225 14.8875 59.3632C15.3835 58.8947 15.5378 58.2107 15.7023 57.5794C17.9604 51.5968 20.2219 45.6151 22.4817 39.6333C17.7057 29.5588 12.9136 19.4901 8.13506 9.41639C7.75041 8.53537 7.24261 7.6627 6.44379 7.08899C4.79048 5.86308 2.64202 5.70775 0.651295 5.62925C0.649608 4.18538 0.651295 2.74235 0.650452 1.29847C7.36407 1.29597 14.0769 1.2968 20.7905 1.29764C20.7913 2.74151 20.7922 4.18538 20.7896 5.62925C19.9149 5.68437 18.9862 5.67017 18.1941 6.09857C17.801 6.28229 17.5699 6.74494 17.6711 7.16582C17.7951 7.85477 18.3451 8.34664 18.6235 8.96878C21.4585 15.014 24.2936 21.0601 27.1372 27.1028C28.5619 23.1586 29.9866 19.2153 31.4172 15.2737C31.6273 14.7259 31.7015 14.0929 31.4619 13.5417C31.2738 13.1067 30.847 12.8378 30.4261 12.6565C29.6078 12.3225 28.7087 12.3258 27.8415 12.264C28.2844 11.0457 28.7297 9.82725 29.1886 8.61554C29.2949 8.5479 29.4425 8.59967 29.5648 8.58297C36.3763 8.58714 43.1886 8.58297 50.0009 8.58547C49.5302 9.80972 49.0621 11.034 48.5965 12.2599C46.9558 12.335 45.2645 12.376 43.7259 13.0106C43.0208 13.3029 42.3535 13.7497 41.9368 14.396C41.6475 14.8695 41.4678 15.3981 41.2738 15.9142C38.4278 23.5987 35.5555 31.2732 32.7415 38.9694C34.3004 42.4576 35.925 45.9157 37.5151 49.3897C43.289 35.8913 49.0612 22.3912 54.8419 8.89529C55.2316 8.08359 55.866 7.34286 55.9157 6.40923C55.9638 5.67852 55.4164 5.04803 54.782 4.74823C53.4147 4.12359 51.8778 4.09269 50.3999 4.04008C50.3982 2.74903 50.3982 1.45798 50.3999 0.166926ZM60.8993 72.8481C62.7221 74.7171 64.5307 76.5985 66.3358 78.4833C66.3333 76.7313 66.3434 74.9784 66.3417 73.2264C66.6538 73.2273 66.9659 73.2239 67.2789 73.2197C67.2797 75.7208 67.2797 78.2228 67.2789 80.7239C65.4543 78.8641 63.6568 76.9793 61.8415 75.1104C61.844 76.8733 61.8373 78.637 61.8364 80.4007C61.5235 80.4032 61.2114 80.4024 60.8993 80.4024C60.8984 77.8837 60.8976 75.3659 60.8993 72.8481ZM7.83392 73.1054C9.84235 72.7998 11.9672 74.3564 12.146 76.384C12.3147 77.5439 11.8601 78.7531 11.0022 79.5523C9.59183 80.9185 7.05534 80.8935 5.6863 79.4788C4.94653 78.769 4.52477 77.746 4.56947 76.7247C4.58972 74.9476 6.07348 73.3601 7.83392 73.1054ZM7.83476 74.024C6.66563 74.2127 5.71414 75.229 5.55049 76.3806C5.3278 77.6892 6.14349 79.0972 7.41975 79.5248C8.53657 79.9423 9.89549 79.549 10.6125 78.6053C11.5395 77.4537 11.3826 75.5957 10.2422 74.6395C9.6011 74.0624 8.67407 73.872 7.83476 74.024ZM22.3375 73.4921C23.3666 72.7271 25.0477 73.0436 25.6416 74.1994C25.3936 74.338 25.1456 74.4775 24.8976 74.6161C24.4514 73.9255 23.3641 73.7568 22.7643 74.343C22.5104 74.5267 22.5383 74.8633 22.5653 75.1397C22.6378 75.5005 23.0258 75.6533 23.3118 75.8228C24.049 76.2069 24.9347 76.4282 25.4526 77.1247C26.0305 77.9022 25.9351 79.0596 25.305 79.7795C24.6462 80.5686 23.4417 80.7607 22.5205 80.3473C21.8137 80.0016 21.3767 79.2709 21.235 78.5218C21.5513 78.4475 21.8693 78.379 22.1865 78.3089C22.2186 78.992 22.7542 79.6826 23.483 79.6951C24.4666 79.8012 25.2485 78.5352 24.6758 77.7276C24.0642 76.9034 22.8849 76.8917 22.1814 76.1794C21.3531 75.5088 21.4366 74.0633 22.3375 73.4921ZM55.9157 73.1003C57.2316 72.9375 58.5914 73.5387 59.3995 74.5692C60.5644 76.0123 60.378 78.3146 58.9954 79.5556C58.2059 80.328 57.0452 80.6462 55.9554 80.5318C54.8782 80.4616 53.8702 79.8637 53.2485 78.9986C52.5787 78.0758 52.405 76.8424 52.7221 75.7576C53.1363 74.3521 54.4573 73.284 55.9157 73.1003ZM55.7546 74.0365C54.3038 74.2811 53.2662 75.811 53.521 77.234C53.6821 78.6027 54.9938 79.7167 56.3814 79.6909C57.3278 79.7067 58.2304 79.1756 58.7407 78.399C59.5159 77.2866 59.3118 75.6432 58.313 74.7279C57.6593 74.0724 56.6496 73.8511 55.7546 74.0365ZM1.40456 73.2215C1.70402 73.2198 2.00347 73.2198 2.30292 73.2215C2.30376 75.3418 2.30208 77.4629 2.30376 79.5832C3.04775 79.5849 3.7909 79.5832 4.53489 79.584C4.53658 79.8563 4.53658 80.1285 4.53573 80.4016C3.49145 80.4024 2.44801 80.4033 1.40456 80.4016C1.40541 78.0082 1.40541 75.6149 1.40456 73.2215ZM12.8723 73.2273C13.1895 73.2248 13.5066 73.2257 13.8246 73.2265C13.8272 74.6395 13.8204 76.0533 13.828 77.4663C13.8424 78.0876 13.92 78.7707 14.3637 79.2492C15.0697 79.9348 16.4564 79.8371 16.9491 78.9485C17.1979 78.531 17.2704 78.0366 17.2637 77.559C17.2578 76.1151 17.2578 74.6712 17.2586 73.2265C17.5758 73.2248 17.893 73.2257 18.2101 73.2265C18.2101 74.7004 18.2135 76.1744 18.2093 77.6483C18.211 78.3172 18.0937 79.0245 17.6618 79.5623C16.7331 80.8358 14.5804 80.9085 13.5631 79.7051C13.0798 79.2041 12.8807 78.4976 12.874 77.8178C12.8698 76.2879 12.8731 74.7572 12.8723 73.2273ZM19.3818 73.2222C19.6939 73.2189 20.0068 73.2197 20.3198 73.2214C20.3198 75.6148 20.3206 78.0081 20.3189 80.4024C20.0068 80.4024 19.6939 80.4032 19.3809 80.4007C19.3826 78.0081 19.3826 75.6148 19.3818 73.2222ZM28.7744 73.2282C29.1178 73.219 29.4628 73.219 29.8069 73.2207C30.5273 74.966 31.2367 76.7155 31.9444 78.4659C32.6504 76.7214 33.3767 74.9852 34.0667 73.2349C34.4202 73.2056 34.7744 73.2257 35.1287 73.2207C34.0752 75.7602 33.0174 78.298 31.9545 80.8333C30.8731 78.3072 29.8305 75.7643 28.7744 73.2282ZM35.5581 73.2198C35.8702 73.224 36.1823 73.2273 36.4952 73.2265C36.5062 74.6178 36.4935 76.0099 36.5054 77.4011C36.5273 78.0617 36.5787 78.8108 37.0882 79.3001C37.6762 79.7987 38.6125 79.8296 39.2401 79.3861C39.6053 79.1289 39.8061 78.7014 39.8854 78.2755C40.0102 77.5423 39.9655 76.7965 39.9739 76.0566C39.979 75.1138 39.9798 74.171 39.9782 73.2282C40.2785 73.2248 40.5796 73.2257 40.8807 73.2265C40.8942 74.5343 40.8833 75.8412 40.8866 77.1489C40.9077 77.9598 40.8816 78.84 40.383 79.5248C39.51 80.7716 37.5007 80.906 36.3957 79.893C35.8432 79.387 35.5657 78.6404 35.5615 77.9038C35.553 76.3422 35.5598 74.7814 35.5581 73.2198ZM42.0583 73.2265C42.3839 73.2273 42.7095 73.224 43.0359 73.2207C43.0359 75.614 43.0351 78.0074 43.0359 80.4016C42.7078 80.4024 42.3805 80.4024 42.0532 80.4016C42.0499 78.0099 42.0608 75.6182 42.0583 73.2265ZM43.6213 73.2265C46.5458 73.229 49.4695 73.2215 52.394 73.2223C52.3932 73.5088 52.3932 73.7952 52.394 74.0825C51.8331 74.085 51.273 74.0825 50.7129 74.0833C50.7103 76.1894 50.712 78.2955 50.712 80.4016C50.3856 80.4024 50.06 80.4024 49.7335 80.4016C49.7318 78.2955 49.7394 76.1894 49.7302 74.0833C48.5821 74.085 47.4341 74.0825 46.286 74.0841C46.2844 76.1902 46.286 78.2955 46.2852 80.4016C45.9857 80.4024 45.6863 80.4024 45.3877 80.4016C45.3868 78.2955 45.3885 76.1902 45.3868 74.0841C44.7981 74.0825 44.2101 74.085 43.6213 74.0825C43.6205 73.7969 43.6205 73.5113 43.6213 73.2265Z" fill="#BDBDBD"/>
</svg>
