<svg width="24" height="24" viewBox="0 0 24 24" fill="none" xmlns="http://www.w3.org/2000/svg">
<path fill-rule="evenodd" clip-rule="evenodd" d="M17.4697 17.4697C17.7626 17.1768 18.2374 17.1768 18.5303 17.4697L21.5303 20.4697C21.8232 20.7626 21.8232 21.2374 21.5303 21.5303C21.2374 21.8232 20.7626 21.8232 20.4697 21.5303L17.4697 18.5303C17.1768 18.2374 17.1768 17.7626 17.4697 17.4697Z" fill="#1B1314"/>
<path fill-rule="evenodd" clip-rule="evenodd" d="M11.5 3.75C7.21979 3.75 3.75 7.21979 3.75 11.5C3.75 15.7802 7.21979 19.25 11.5 19.25C15.7802 19.25 19.25 15.7802 19.25 11.5C19.25 7.21979 15.7802 3.75 11.5 3.75ZM2.25 11.5C2.25 6.39137 6.39137 2.25 11.5 2.25C16.6086 2.25 20.75 6.39137 20.75 11.5C20.75 16.6086 16.6086 20.75 11.5 20.75C6.39137 20.75 2.25 16.6086 2.25 11.5Z" fill="#1B1314"/>
</svg>
