<svg width="22" height="21" viewBox="0 0 22 21" fill="none" xmlns="http://www.w3.org/2000/svg">
<path d="M12.3704 0.589567C11.5219 0.101818 10.4781 0.101818 9.62952 0.589567C9.24999 0.807725 8.96249 1.1493 8.69782 1.53282C8.43473 1.91403 8.13955 2.42084 7.77541 3.04604L7.13787 4.14064C6.90424 4.54175 6.83834 4.64743 6.76327 4.73048C6.64689 4.85924 6.50496 4.96236 6.34654 5.03326C6.24435 5.07899 6.12349 5.109 5.66981 5.20724L4.43179 5.47533C3.72467 5.62845 3.15143 5.75258 2.70757 5.88499C2.26104 6.01819 1.84734 6.18606 1.52258 6.4796C0.796486 7.13589 0.473924 8.12863 0.675588 9.08636C0.765788 9.51474 1.00181 9.89371 1.28476 10.2639C1.56602 10.632 1.95681 11.0693 2.43888 11.6088L3.2829 12.5534C3.59218 12.8996 3.67232 12.9949 3.72811 13.0919C3.81461 13.2424 3.86882 13.4093 3.88729 13.5818C3.89921 13.6932 3.8904 13.8174 3.84364 14.2792L3.71604 15.5395C3.64315 16.2593 3.58406 16.8429 3.57283 17.3059C3.56153 17.7717 3.59335 18.2171 3.77216 18.6166C4.17196 19.51 5.01643 20.1236 5.98961 20.2277C6.42489 20.2743 6.85824 20.1669 7.2978 20.0122C7.73472 19.8585 8.27143 19.622 8.93351 19.3302L10.0927 18.8194C10.5174 18.6322 10.6329 18.5854 10.7424 18.5624C10.9123 18.5266 11.0877 18.5266 11.2575 18.5624C11.3671 18.5854 11.4825 18.6322 11.9073 18.8194L13.0664 19.3302C13.7285 19.622 14.2652 19.8585 14.7021 20.0122C15.1417 20.1669 15.5751 20.2743 16.0103 20.2277C16.9835 20.1236 17.828 19.51 18.2278 18.6166C18.4066 18.2171 18.4384 17.7717 18.4271 17.3059C18.4159 16.8429 18.3568 16.2593 18.2839 15.5395L18.1563 14.2792C18.1095 13.8174 18.1007 13.6932 18.1127 13.5818C18.1311 13.4093 18.1853 13.2424 18.2718 13.0919C18.3276 12.9949 18.4078 12.8996 18.7171 12.5534L19.5611 11.6088C20.0432 11.0693 20.4339 10.6319 20.7152 10.2639C20.9981 9.89371 21.2342 9.51474 21.3244 9.08636C21.526 8.12863 21.2035 7.13589 20.4774 6.4796C20.1526 6.18606 19.7389 6.01819 19.2924 5.88499C18.8485 5.75258 18.2753 5.62846 17.5682 5.47534L16.3301 5.20725C15.8765 5.109 15.7556 5.07899 15.6534 5.03326C15.495 4.96236 15.3531 4.85924 15.2367 4.73048C15.1616 4.64743 15.0957 4.54175 14.8621 4.14064L14.2246 3.04607C13.8604 2.42088 13.5652 1.91403 13.3021 1.53282C13.0375 1.1493 12.75 0.807725 12.3704 0.589567Z" fill="#FFC83D"/>
</svg>
